#!OML:ASF G:\acrobat\cartwheel_test\acrobat_wednesday\Session 1\acrobatwednesday.ASF
:FULLY-SPECIFIED
:DEGREES
249
root 9.98081 14.711 3.47031 -225.545 88.6832 -219.549
lowerback -0.714238 -0.800849 0.470463
upperback 3.00687 -1.05959 0.227773
thorax 3.48472 -0.506116 -0.0681515
lowerneck -18.0194 -12.7909 -15.2809
upperneck 22.433 -16.0931 9.84861
head 12.514 -7.35341 3.35117
rclavicle -5.8393e-016 -2.78299e-015
rhumerus 0 0 0
rradius 0
rwrist 0
rhand 0 0
rfingers 0
rthumb 0 0
lclavicle -5.8393e-016 -2.78299e-015
lhumerus 0 0 0
lradius 0
lwrist 0
lhand 0 0
lfingers 0
lthumb 0 0
rfemur -14.7116 -8.94527 10.9888
rtibia 53.9999
rfoot 9.56725 14.9997
rtoes -14.8278
lfemur -17.232 9.44204 -9.13122
ltibia 55.775
lfoot 19.2794 6.8615
ltoes -20.1691
250
root 9.97917 14.7133 3.46559 -230.531 88.5244 -224.6
lowerback -0.728138 -0.797967 0.338468
upperback 2.96656 -1.05102 0.150519
thorax 3.45179 -0.504949 -0.0732228
lowerneck -18.0959 -12.7803 -15.2215
upperneck 22.4469 -16.0589 9.75509
head 12.5137 -7.34191 3.31075
rclavicle 5.84474e-015 1.98785e-016
rhumerus 0 0 0
rradius 0
rwrist 0
rhand 0 0
rfingers 0
rthumb 0 0
lclavicle 5.84474e-015 1.98785e-016
lhumerus 0 0 0
lradius 0
lwrist 0
lhand 0 0
lfingers 0
lthumb 0 0
rfemur -14.9316 -9.09348 10.7279
rtibia 54.189
rfoot 9.87699 14.6736
rtoes -17.0437
lfemur -17.301 9.3698 -9.41921
ltibia 55.7488
lfoot 19.3756 6.69807
ltoes -19.6289
251
root 9.97901 14.7153 3.46266 -233.164 88.4514 -227.283
lowerback -0.774134 -0.798422 0.252011
upperback 2.96523 -1.04924 0.128636
thorax 3.47755 -0.506211 -0.0479388
lowerneck -18.1593 -12.7742 -15.2104
upperneck 22.3863 -16.0275 9.71422
head 12.492 -7.33118 3.29696
rclavicle -1.8077e-015 4.37326e-015
rhumerus 0 0 0
rradius 0
rwrist 0
rhand 0 0
rfingers 0
rthumb 0 0
lclavicle -1.8077e-015 4.37326e-015
lhumerus 0 0 0
lradius 0
lwrist 0
lhand 0 0
lfingers 0
lthumb 0 0
rfemur -15.0521 -9.17473 10.6077
rtibia 54.2319
rfoot 10.16 14.4024
rtoes -19.2459
lfemur -17.3443 9.35063 -9.57015
ltibia 55.7238
lfoot 19.3524 6.68685
ltoes -19.6567
252
root 9.98109 14.7162 3.46176 -233.064 88.4005 -227.157
lowerback -0.760366 -0.810201 0.200872
upperback 2.98587 -1.06329 0.131651
thorax 3.49209 -0.514474 -0.0167063
lowerneck -18.2893 -12.7835 -15.2877
upperneck 22.4808 -16.0129 9.73506
head 12.5624 -7.32223 3.31297
rclavicle 6.90932e-015 -3.57812e-015
rhumerus 0 0 0
rradius 0
rwrist 0
rhand 0 0
rfingers 0
rthumb 0 0
lclavicle 6.90932e-015 -3.57812e-015
lhumerus 0 0 0
lradius 0
lwrist 0
lhand 0 0
lfingers 0
lthumb 0 0
rfemur -14.9808 -9.18896 10.5346
rtibia 54.2451
rfoot 9.89904 14.6577
rtoes -16.9619
lfemur -17.2985 9.31738 -9.62568
ltibia 55.6894
lfoot 19.2775 6.81869
ltoes -20.1019
253
root 9.98293 14.7173 3.46046 -232.424 88.3232 -226.499
lowerback -0.735357 -0.811399 0.168057
upperback 2.98577 -1.06326 0.111613
thorax 3.47806 -0.515068 -0.0185419
lowerneck -18.4703 -12.8203 -15.2865
upperneck 22.6999 -16.0285 9.63092
head 12.6758 -7.33102 3.26167
rclavicle -8.8133e-015 2.38542e-015
rhumerus 0 0 0
rradius 0
rwrist 0
rhand 0 0
rfingers 0
rthumb 0 0
lclavicle -8.8133e-015 2.38542e-015
lhumerus 0 0 0
lradius 0
lwrist 0
lhand 0 0
lfingers 0
lthumb 0 0
rfemur -14.8925 -9.27145 10.4237
rtibia 54.2396
rfoot 9.61233 14.8587
rtoes -14.5511
lfemur -17.2683 9.25108 -9.70028
ltibia 55.6565
lfoot 19.3069 6.7771
ltoes -19.5468
254
root 9.98343 14.7185 3.45927 -231.116 88.3262 -225.211
lowerback -0.729078 -0.802641 0.188046
upperback 2.97153 -1.05271 0.127812
thorax 3.45973 -0.509616 -0.0124745
lowerneck -18.6439 -12.8524 -15.1898
upperneck 22.8689 -16.0302 9.41474
head 12.7449 -7.34086 3.15695
rclavicle -6.41779e-015 2.18663e-015
rhumerus 0 0 0
rradius 0
rwrist 0
rhand 0 0
rfingers 0
rthumb 0 0
lclavicle -6.41779e-015 2.18663e-015
lhumerus 0 0 0
lradius 0
lwrist 0
lhand 0 0
lfingers 0
lthumb 0 0
rfemur -14.8849 -9.33497 10.4265
rtibia 54.2095
rfoot 9.57389 14.8522
rtoes -14.1328
lfemur -17.2965 9.21378 -9.6843
ltibia 55.6778
lfoot 19.3248 6.7018
ltoes -18.8792
255
root 9.9841 14.7193 3.45784 -229.646 88.344 -223.738
lowerback -0.704786 -0.800083 0.229904
upperback 2.95971 -1.05083 0.145514
thorax 3.43336 -0.507866 -0.0171769
lowerneck -18.6273 -12.8639 -15.1773
upperneck 22.8452 -16.0369 9.36677
head 12.7268 -7.34975 3.13615
rclavicle -2.02667e-015 -3.77691e-015
rhumerus 0 0 0
rradius 0
rwrist 0
rhand 0 0
rfingers 0
rthumb 0 0
lclavicle -2.02667e-015 -3.77691e-015
lhumerus 0 0 0
lradius 0
lwrist 0
lhand 0 0
lfingers 0
lthumb 0 0
rfemur -14.8799 -9.28055 10.4684
rtibia 54.2123
rfoot 9.4117 15.0054
rtoes -14.2433
lfemur -17.305 9.18382 -9.64722
ltibia 55.7065
lfoot 19.3073 6.81485
ltoes -19.4113
